<svg enable-background="new 0 0 512 512" viewBox="0 0 512 512" xmlns="http://www.w3.org/2000/svg"><path d="m256 0c-141.156 0-256 114.844-256 256s114.844 256 256 256 256-114.844 256-256-114.844-256-256-256zm0 490.667c-129.396 0-234.667-105.271-234.667-234.667s105.271-234.667 234.667-234.667 234.667 105.271 234.667 234.667-105.271 234.667-234.667 234.667z"/><path d="m160 170.667c-41.167 0-74.667 33.5-74.667 74.667 0 41.166 33.5 74.666 74.667 74.666s74.667-33.5 74.667-74.667c0-41.166-33.5-74.666-74.667-74.666zm0 128c-29.406 0-53.333-23.927-53.333-53.333 0-29.407 23.927-53.334 53.333-53.334s53.333 23.927 53.333 53.333c0 29.407-23.927 53.334-53.333 53.334z"/><path d="m352 170.667c-41.167 0-74.667 33.5-74.667 74.667 0 41.166 33.5 74.666 74.667 74.666s74.667-33.5 74.667-74.667c0-41.166-33.5-74.666-74.667-74.666zm0 128c-29.406 0-53.333-23.927-53.333-53.333 0-29.407 23.927-53.334 53.333-53.334s53.333 23.927 53.333 53.333c0 29.407-23.927 53.334-53.333 53.334z"/></svg>