<svg class="svg-icon" data-name="Layer 1" xmlns="http://www.w3.org/2000/svg" viewBox="0 0 300 300"><g id="GB0Eu1.tif"><path d="M17.89,150.46V38.81C17.89,18.37,35.43.23,56,.12,97-.1,138,.06,179,0a8.55,8.55,0,0,1,7,2.84Q220.44,41.6,255,80.2a9.75,9.75,0,0,1,2.53,7.12c-.06,24.51,0,49-.08,73.55,0,3.36,1,4.61,4.46,4.64a19.81,19.81,0,0,1,20,20q.36,22.32,0,44.66c-.18,12.18-8.33,20.54-20.21,20.77-3.88.08-4.25,1.89-4.12,4.9.49,11.84-2.47,22.5-10.78,31.34-7.7,8.19-17.27,12.65-28.36,12.69q-81,.27-162,0c-20.9-.05-38.54-17.93-38.57-38.67Q17.83,205.84,17.89,150.46Zm19-.45h0v16.2c0,29.92,0,59.84,0,89.76,0,16.48,9.56,24.47,24.16,24.37,51.08-.36,102.17-.14,153.25-.16a37.22,37.22,0,0,0,7.4-.42c10.66-2.18,16-10.17,16.27-23.12.09-4.39-1.15-5.73-5.64-5.7-30.21.19-60.43.12-90.64.08-12.68,0-21.16-8.45-21.21-21.14q-.08-21.9,0-43.79c.08-12.51,8.52-20.68,21-20.66,30.36,0,60.72-.06,91.08.1,4,0,5.32-1.14,5.29-5.18q-.24-29.11,0-58.23c0-4.24-1.29-5.5-5.49-5.46-19,.19-37.94.1-56.92.08-6.11,0-6.12-.06-6.13-6,0-21.75-.1-43.5.09-65.24,0-4.28-1-5.83-5.57-5.8-35.62.19-71.23.1-106.84.14A19.73,19.73,0,0,0,37.62,37.09a81.49,81.49,0,0,0-.72,11.77Q36.91,99.42,36.9,150Zm148.91,59.56c0,5.68.09,11.36,0,17-.07,2.86,1.08,3.9,3.86,3.83,5-.13,9.9,0,14.86-.07,12.86-.1,19-5,20.67-17.6,1.37-10.43-3.53-23.74-19.34-23.2q-7.86.26-15.73,0c-3.16-.1-4.47.95-4.34,4.25C186,199.08,185.8,204.33,185.81,209.57Zm-27.57-19.93v0c-3.2,0-6.41.12-9.61,0-3-.15-4.06,1.09-4,4.11.13,10.34,0,20.68,0,31,0,5.73,0,5.73,5.92,5.71s5.82,0,5.86-5.83c0-.44,0-.88,0-1.31-.44-3.85,1-5.76,5.12-5.3a24.17,24.17,0,0,0,8.23-.68c7.53-1.81,11.74-7.5,11-15C180,195,174.54,189.89,167,189.65,164.07,189.56,161.15,189.64,158.24,189.64Zm73.87,20.23h0c0,5.53.08,11.07,0,16.6-.05,2.72.88,4.15,3.77,3.95a27.13,27.13,0,0,1,3.93,0c3,.21,4.33-1,4.14-4.06-.16-2.46.07-5-.09-7.42-.2-3.25,1.3-4.44,4.41-4.31s6.12,0,9.17,0c4,0,3-3.06,3.23-5.37.21-2.47-.66-3.86-3.43-3.76-3.2.13-6.41,0-9.61,0-2.13,0-3.71-.43-3.65-3.11,0-2.52,1.65-2.75,3.52-2.76,3.93,0,7.87-.17,11.79.06,3.5.2,4.22-1.56,4.06-4.52-.14-2.76.51-5.67-4-5.56-7.71.19-15.43.12-23.15,0-3-.05-4.18,1.14-4.11,4.12C232.2,199.09,232.11,204.48,232.11,209.87ZM190.34,37.25l-1.13.35V74.24c0,2.44,1.59,2.77,3.54,2.76,5.11,0,10.22,0,15.33,0h17.74Z"/><path d="M213,210.4c.09,8.66-5.22,10.33-11.37,10.68-2.05.11-3.28-.85-3.26-3.12q0-7.65,0-15.31c0-2.28,1.18-2.91,3.27-3.05C209.12,199.07,213,202.68,213,210.4Z"/><path d="M160.82,208.91c-2.3.25-4.43-.28-4.51-4.28s1.59-5.21,5.41-5.08c6.13.21,8.33,1.63,7.3,5.59S164.69,208.77,160.82,208.91Z"/></g></svg>
