<svg viewBox="0.712 1.051 498.568 498.568" width="498.568" height="498.568"  xmlns="http://www.w3.org/2000/svg">
  <path d="M 499.28 250.335 A 249.284 249.284 0 0 1 249.996 499.619 A 249.284 249.284 0 0 1 0.712 250.335 A 249.284 249.284 0 0 1 249.996 1.051 A 249.284 249.284 0 0 1 499.28 250.335 Z" style="fill: rgb(133, 119, 192);"></path>
  <path d="M 167.13 363.095 L 129.398 363.095 C 128.485 363.095 127.978 362.588 127.876 361.574 L 91.057 147.503 C 90.854 146.692 91.158 146.286 91.97 146.286 L 126.964 146.286 C 127.775 146.286 128.282 146.692 128.485 147.503 L 148.416 288.239 L 168.956 147.503 C 169.159 146.692 169.768 146.286 170.782 146.286 L 198.929 146.286 C 199.74 146.286 200.248 146.692 200.45 147.503 L 220.686 288.239 L 240.922 147.503 C 241.124 146.692 241.632 146.286 242.443 146.286 L 277.132 146.286 C 278.147 146.286 278.552 146.692 278.35 147.503 L 241.226 361.574 C 241.124 361.979 240.82 362.334 240.313 362.639 L 239.704 363.095 L 201.972 363.095 C 201.363 363.095 200.856 362.588 200.45 361.574 L 184.475 249.746 L 168.652 361.574 C 168.55 362.588 168.043 363.095 167.13 363.095 Z M 347.722 366.138 C 336.464 366.138 326.168 363.298 316.837 357.618 C 307.606 351.938 300.278 344.305 294.851 334.72 C 289.425 325.135 286.712 314.459 286.712 302.693 L 287.016 205.471 C 287.016 193.908 289.653 183.461 294.927 174.129 C 300.202 164.696 307.48 157.114 316.761 151.383 C 326.041 145.652 336.362 142.787 347.722 142.787 C 359.286 142.787 369.581 145.576 378.608 151.155 C 387.737 156.733 395.015 164.265 400.441 173.749 C 405.868 183.232 408.581 193.807 408.581 205.471 L 408.581 219.773 C 408.581 220.584 408.175 220.99 407.364 220.99 L 372.37 220.99 C 371.559 220.99 371.153 220.584 371.153 219.773 L 371.153 205.471 C 371.153 198.574 368.922 192.64 364.459 187.67 C 359.996 182.7 354.417 180.215 347.722 180.215 C 340.318 180.215 334.638 182.751 330.682 187.822 C 326.726 192.894 324.748 198.777 324.748 205.471 L 324.748 302.693 C 324.748 310.3 326.98 316.513 331.443 321.331 C 335.906 326.149 341.332 328.558 347.722 328.558 C 354.417 328.558 359.996 325.895 364.459 320.57 C 368.922 315.245 371.153 309.286 371.153 302.693 L 371.153 288.239 C 371.153 287.428 371.559 287.022 372.37 287.022 L 407.668 287.022 C 408.48 287.022 408.885 287.428 408.885 288.239 L 408.885 302.693 C 408.885 314.358 406.147 325.008 400.669 334.644 C 395.091 344.178 387.737 351.811 378.608 357.542 C 369.479 363.273 359.184 366.138 347.722 366.138 Z" style="fill: rgb(251, 249, 248);"></path>
</svg>
